<?xml version="1.0" encoding="UTF-8"?>
<!DOCTYPE svg PUBLIC "-//W3C//DTD SVG 1.1//EN" "http://www.w3.org/Graphics/SVG/1.1/DTD/svg11.dtd">
<svg xmlns="http://www.w3.org/2000/svg" version="1.1" width="32px" height="32px" style="shape-rendering:geometricPrecision; text-rendering:geometricPrecision; image-rendering:optimizeQuality; fill-rule:evenodd; clip-rule:evenodd" xmlns:xlink="http://www.w3.org/1999/xlink">
<g><path style="opacity:0.81" fill="#11c4b0" d="M 10.5,2.5 C 26.7289,1.94577 31.8956,9.2791 26,24.5C 19.8691,29.1956 13.3691,29.6956 6.5,26C 1.80442,19.8691 1.30442,13.3691 5,6.5C 6.81213,5.02294 8.64547,3.6896 10.5,2.5 Z M 11.5,5.5 C 21.9884,4.48736 26.4884,9.15403 25,19.5C 22.0812,25.0248 17.5812,26.8581 11.5,25C 5.97524,22.0812 4.14191,17.5812 6,11.5C 7.35968,8.97739 9.19301,6.97739 11.5,5.5 Z"/></g>
<g><path style="opacity:1" fill="#12c5b0" d="M 9.5,14.5 C 13.5546,14.1758 17.5546,14.5091 21.5,15.5C 19.5,15.8333 17.5,16.1667 15.5,16.5C 13.0478,16.4609 11.0478,15.7943 9.5,14.5 Z"/></g>
</svg>
