<?xml version="1.0" encoding="UTF-8"?>
<!DOCTYPE svg PUBLIC "-//W3C//DTD SVG 1.1//EN" "http://www.w3.org/Graphics/SVG/1.1/DTD/svg11.dtd">
<svg xmlns="http://www.w3.org/2000/svg" version="1.1" width="30px" height="30px" style="shape-rendering:geometricPrecision; text-rendering:geometricPrecision; image-rendering:optimizeQuality; fill-rule:evenodd; clip-rule:evenodd" xmlns:xlink="http://www.w3.org/1999/xlink">
<g><path style="opacity:0.992" fill="#11c4b1" d="M 1.5,3.5 C 10.1667,3.5 18.8333,3.5 27.5,3.5C 27.5,10.8333 27.5,18.1667 27.5,25.5C 18.8333,25.5 10.1667,25.5 1.5,25.5C 1.5,18.1667 1.5,10.8333 1.5,3.5 Z M 3.5,5.5 C 4.5,5.5 5.5,5.5 6.5,5.5C 6.5,6.5 6.5,7.5 6.5,8.5C 5.5,8.5 4.5,8.5 3.5,8.5C 3.5,7.5 3.5,6.5 3.5,5.5 Z M 22.5,5.5 C 23.5,5.5 24.5,5.5 25.5,5.5C 25.5,6.5 25.5,7.5 25.5,8.5C 24.5,8.5 23.5,8.5 22.5,8.5C 22.5,7.5 22.5,6.5 22.5,5.5 Z M 3.5,10.5 C 4.5,10.5 5.5,10.5 6.5,10.5C 6.5,11.5 6.5,12.5 6.5,13.5C 5.5,13.5 4.5,13.5 3.5,13.5C 3.5,12.5 3.5,11.5 3.5,10.5 Z M 22.5,10.5 C 23.5,10.5 24.5,10.5 25.5,10.5C 25.5,11.5 25.5,12.5 25.5,13.5C 24.5,13.5 23.5,13.5 22.5,13.5C 22.5,12.5 22.5,11.5 22.5,10.5 Z M 3.5,15.5 C 4.5,15.5 5.5,15.5 6.5,15.5C 6.5,16.5 6.5,17.5 6.5,18.5C 5.5,18.5 4.5,18.5 3.5,18.5C 3.5,17.5 3.5,16.5 3.5,15.5 Z M 22.5,15.5 C 23.5,15.5 24.5,15.5 25.5,15.5C 25.5,16.5 25.5,17.5 25.5,18.5C 24.5,18.5 23.5,18.5 22.5,18.5C 22.5,17.5 22.5,16.5 22.5,15.5 Z M 3.5,20.5 C 4.5,20.5 5.5,20.5 6.5,20.5C 6.5,21.5 6.5,22.5 6.5,23.5C 5.5,23.5 4.5,23.5 3.5,23.5C 3.5,22.5 3.5,21.5 3.5,20.5 Z M 22.5,20.5 C 23.5,20.5 24.5,20.5 25.5,20.5C 25.5,21.5 25.5,22.5 25.5,23.5C 24.5,23.5 23.5,23.5 22.5,23.5C 22.5,22.5 22.5,21.5 22.5,20.5 Z"/></g>
</svg>
